<?xml version="1.0" encoding="utf-8"?>
<!-- Generator: Adobe Illustrator 19.2.0, SVG Export Plug-In . SVG Version: 6.00 Build 0)  -->
<svg version="1.1" id="Layer_1" xmlns="http://www.w3.org/2000/svg" xmlns:xlink="http://www.w3.org/1999/xlink" x="0px" y="0px"
	 viewBox="0 0 176.3 176.3" style="enable-background:new 0 0 176.3 176.3;" xml:space="preserve">
<style type="text/css">
	.st0{fill:#FFFFFF;}
</style>
<path class="st0" d="M176.3,25.8c0,41.5,0,83.1,0,124.6c-1.4,3.6-2.4,7.4-4.3,10.8c-4.7,8.4-12.4,12.9-21.6,15.1
	c-11.5,0-23,0-34.5,0c-0.1-0.8-0.2-1.5-0.2-2.3c0-20.5,0-41,0-61.5c0-0.9,0.2-1.7,0.4-2.9c9.7,0,19.1,0,28.7,0c0-9.9,0-19.4,0-29.4
	c-9.7,0-19.3,0-29.1,0c0-4-0.1-7.3,0-10.7c0.1-6.7,2-8.6,8.7-8.6c6.8,0,13.5,0,20.2,0c0-10.1,0-19.7,0-29.3
	c-9.4,0-18.6-0.9-27.6,0.2C102.4,33.5,90.4,47.3,88.6,63c-0.6,5.5-0.7,11.1-1,17.1c-7,0-13.8,0-20.8,0c0,10,0,19.6,0,29.6
	c7.1,0,14,0,21.1,0c0,3.8,0,7.1,0,10.5c-0.1,18.7-0.1,37.3-0.2,56c-20.6,0-41.3,0-61.9,0c-4.9-2.3-10.1-4-14.5-7
	c-6.5-4.4-9.6-11.4-11.4-18.9c0-41.5,0-83.1,0-124.6c1.4-3.6,2.4-7.4,4.3-10.8C9,6.6,16.7,2.1,25.9-0.1c41.5,0,83.1,0,124.6,0
	c3.7,1.5,7.6,2.5,11.1,4.5C169.8,9.1,174.2,16.7,176.3,25.8z"/>
</svg>
