<?xml version="1.0" encoding="utf-8"?>
<!-- Generator: Adobe Illustrator 19.2.0, SVG Export Plug-In . SVG Version: 6.00 Build 0)  -->
<svg version="1.1" id="Layer_1" xmlns="http://www.w3.org/2000/svg" xmlns:xlink="http://www.w3.org/1999/xlink" x="0px" y="0px"
	 viewBox="0 0 176.3 176.3" style="enable-background:new 0 0 176.3 176.3;" xml:space="preserve">
<style type="text/css">
	.st0{fill:none;enable-background:new    ;}
	.st1{fill:#FFFFFF;}
</style>
<path class="st0" d="z"/>
<path class="st1" d="M176.3,87.9c0.3,48.3-39.5,88.3-88,88.4C40.1,176.4,0.3,137,0,88.7C-0.3,40.3,39.2,0.3,87.8,0
	C136.1-0.3,176,39.3,176.3,87.9z M53.3,154.7c3.8-16.2,7.7-32.4,11.3-48.6c0.7-3,0.1-6.3-0.1-9.4c-0.2-5-1.2-10.1-0.8-15.1
	c0.6-6.4,3.5-12,9.2-15.6c8.1-5,17.3-1.2,18.5,8.2C92,78.7,91,83.4,90,87.8c-1.6,7.1-4.3,13.9-5.8,21c-1.9,9,4.4,16.3,13.6,16.4
	c8.9,0.1,15-4.8,19.3-11.8c8.2-13.3,10.8-28,8.1-43.4c-1.5-8.9-6.7-15.8-14.7-20.4c-19.7-11.2-47.5-4-58.7,15.7
	c-6.5,11.4-9.1,23.7-2,35.6c2.9,4.8,3.5,8.7,1.9,13.6c-1.4,4.1-2.6,4.8-6.5,2.8c-7.3-3.6-11.5-9.7-14-17.2C24.6,80,32.1,57,49.8,43
	c10.9-8.6,23.6-12.5,37.3-13.4c25.1-1.6,49.6,10.3,57.3,34.4c7.5,23.4,2.4,45.3-14.2,63.5c-9.6,10.5-22.3,15.1-36.5,11.7
	c-5.6-1.3-10.6-5.3-15.7-7.9c-2.5,9.3-5.2,19.4-7.9,29.6c29,9.2,72.4-4.6,88.3-45.4c15.3-39.3-4-83.2-42.8-98
	c-39.5-14.8-83.2,4.6-98,43.6C2.2,101.7,24.4,141.4,53.3,154.7z"/>
</svg>
