<?xml version="1.0" encoding="utf-8"?>
<!-- Generator: Adobe Illustrator 19.2.0, SVG Export Plug-In . SVG Version: 6.00 Build 0)  -->
<svg version="1.1" id="Layer_1" xmlns="http://www.w3.org/2000/svg" xmlns:xlink="http://www.w3.org/1999/xlink" x="0px" y="0px"
	 viewBox="0 0 181.2 176.3" style="enable-background:new 0 0 181.2 176.3;" xml:space="preserve">
<style type="text/css">
	.st0{fill:#FFFFFF;}
</style>
<path class="st0" d="M0,147c19.6,0.9,37.3-4,53.9-16.3c-17.1-1.9-28.7-10.1-35.1-26.5c5.6,0,10.5,0,15.4,0
	C16.4,97.5,6.7,85.3,5.3,66.5c5.4,1.5,10.5,3,15.5,4.4c0.2-0.3,0.5-0.5,0.7-0.8C5.4,56.3,1.8,39.8,10.6,19.9
	C31.4,44,57.2,57.4,87.8,59.5c0.8-7,0.5-13.9,2.4-20.1c8-26.3,40.7-35,61.2-16.6c1.9,1.7,3.6,2.2,5.8,1.4c6.6-2.4,13.3-4.8,20.1-7.3
	c-2.6,8-8,14.1-14.5,19.9c6.2-1.6,12.4-3.3,18.5-4.9c-1.3,3.6-7.2,10.8-13.6,15.3c-3.2,2.3-3.7,4.8-3.7,8.3
	c0.1,45.2-28.5,86.6-70.8,101.3C60.9,168.1,29.6,164.6,0,147z"/>
</svg>
